<svg xmlns="http://www.w3.org/2000/svg" xmlns:xlink="http://www.w3.org/1999/xlink" xmlns:serif="http://www.serif.com/" width="100%" height="100%" viewBox="0 0 512 512" version="1.1" xml:space="preserve" style="fill:red;">
    <g transform="matrix(1.57418,0,0,1.57418,6,79.1868)">
        <path d="M99.03,37.653C110.899,26.734 131.371,21.53 131.371,21.53L219.729,0.871C219.729,0.871 235.637,-0.947 243.502,3.808C251.367,8.563 264.166,20.069 272.221,30.684C282.584,44.338 293.106,61.722 301.551,84.089C309.996,106.455 317.232,129.822 317.375,137.053C317.518,144.284 318.645,149.975 314.577,155.933C310.51,161.891 302.68,169.817 297.268,173.329C291.855,176.84 267.168,190.635 249.202,196.781C231.236,202.927 190.24,214.876 176.126,218.928C161.269,223.193 159.096,224.178 141.635,224C125.624,223.836 120.356,221.715 111.156,215.802C101.901,209.854 98.464,205.898 92.832,195.582C87.745,186.266 82.589,170.068 82.589,170.068C82.589,170.068 73.429,130.664 70.869,91.172C70.457,84.811 69.696,76.108 73.938,67.504C79.574,56.073 91.412,44.662 99.03,37.653Z" style="fill:#9A0432"/>
    </g>
    <g transform="matrix(1.57418,0,0,1.57418,6,79.1868)">
        <path d="M0,4.416L209.275,32.007L209.268,175.928L0,204.048L0,4.416Z" style="fill:#9A0432"/>
    </g>
    <g transform="matrix(0.976562,0,0,0.976562,6,5.99831)">
        <path d="M210.93,109.873L337.344,126.539L337.332,358.535L146.591,384.165C139.502,369.104 133.131,349.089 133.131,349.089C133.131,349.089 118.365,285.57 114.238,221.911C113.573,211.657 112.348,197.629 119.185,183.76C128.27,165.333 147.353,146.939 159.633,135.641C176.967,119.694 205.686,111.308 210.93,109.873Z" style="fill:#fff;"/>
    </g>
</svg>